<?xml version="1.0" encoding="utf-8"?>
<!-- Generator: Adobe Illustrator 22.0.1, SVG Export Plug-In . SVG Version: 6.00 Build 0)  -->
<svg version="1.1" id="Layer_1" xmlns="http://www.w3.org/2000/svg" xmlns:xlink="http://www.w3.org/1999/xlink" x="0px" y="0px"
	 width="169px"
	 height="65px"
	 viewBox="0 0 169.1 65" style="enable-background:new 0 0 169.1 65;" xml:space="preserve">
<style type="text/css">
	.st0{fill:#EC1C24;}
	.st1{fill:#231F20;}
	.st2{fill:#FFFFFF;}
</style>
<g>
	<path class="st0" d="M58.8,39.8v-1.6h3.7l0.2,1.3c0.1,0.9,0.6,2.1,2.4,2.6v-3.7l-0.7-0.3c-2.4-1-5.6-2.8-5.6-6.7
		c0-3.5,2.4-5.9,6.2-6.5V0H0v65h65V46.9c-2.2-0.2-3.8-0.9-4.8-1.9C58.8,43.6,58.8,41.9,58.8,39.8z"/>
	<path class="st1" d="M91.4,45h-1.9l-1.3-1.5h-0.2c-1,1-2.7,1.9-5,1.9c-3.3,0-6.6-1.3-6.6-6.9v-6.9c0-2.3-0.4-3.9-2.7-3.9h-0.4v-0.8
		h3.1c2.7,0,3.5,0.8,3.5,4.6v6.9c0,3.9,2.1,5.2,4.2,5.2c1.5,0,2.9-1,3.9-2V26.9h3.5V45z"/>
	<path class="st1" d="M99.1,28.4c1-1,2.7-1.9,5-1.9c1.9,0,3.7,0.6,4.6,2.7c1.3-1.7,3.7-2.7,5.8-2.7c2.9,0,5.4,1.3,5.4,6.9V45h-3.5
		V33.5c0-3.9-1.2-5.2-3.1-5.2c-1.5,0-3.3,1.3-4,2.5c0.2,0.6,0.2,1.9,0.2,2.7V45H106V33.5c0-3.9-1.2-5.2-3.1-5.2c-1.5,0-2.9,1-3.9,2
		V45h-3.5V31.5c0-2.3-0.4-3.9-2.7-3.9h-0.8v-0.8h3.5c1.9,0,2.9,0.6,3.3,1.5H99.1z"/>
	<path class="st1" d="M127.2,28.4c1-1,2.7-1.9,5-1.9c1.9,0,3.7,0.6,4.6,2.7c1.3-1.7,3.7-2.7,5.8-2.7c2.9,0,5.4,1.3,5.4,6.9V45h-3.5
		V33.5c0-3.9-1.2-5.2-3.1-5.2c-1.5,0-3.3,1.3-4,2.5c0.2,0.6,0.2,1.9,0.2,2.7V45h-3.5V33.5c0-3.9-1.2-5.2-3.1-5.2c-1.5,0-2.9,1-3.9,2
		V45h-3.5V31.5c0-2.3-0.4-3.9-2.7-3.9h-0.8v-0.8h3.5c1.9,0,2.9,0.6,3.3,1.5H127.2z"/>
	<path class="st1" d="M155.4,45h-3.5V31.5c0-2.3-0.4-3.9-2.7-3.9h-0.8v-0.8h3.5c2.7,0,3.5,0.8,3.5,4.6V45z M153.4,24.6
		c-1.2,0-2.2-1.2-2.2-2.5c0-1.1,0.7-1.7,1.8-1.7c1.2,0,2.2,1.2,2.2,2.5C155.2,23.9,154.5,24.6,153.4,24.6z"/>
	<path class="st1" d="M159.6,28.4h-2.7v-1.5h2.7v-3.5l1.9-2.3h1.5v5.8h4.6v1.5h-4.6v12c0,2.3,1,3.5,2.7,3.5c1.3,0,2.1-0.4,2.9-0.8
		l0.4,0.8c-0.8,0.6-2.1,1.5-4.8,1.5c-2.7,0-4.6-1.5-4.6-5V28.4z"/>
	<path class="st2" d="M24.8,45c-0.4,0.1-1,0.2-1.5,0.2c-1.7,0-4.9-0.6-6.6-5l-1-2.5H5L1.9,45H0.2L11,19.6h1.2l8.5,20.6
		c1.2,2.9,2.1,3.9,4.2,4V45z M5.6,36.2H15L10.4,25L5.6,36.2z"/>
	<path class="st2" d="M33.6,19.6c4,0,10.4,0.8,10.4,6.7c0,2.3-1.5,4.4-5,5.6c5,0.8,6.4,3.1,6.4,6.2c0,5.8-5.8,6.9-10.6,6.9H27V24.2
		c0-2.3-0.4-3.9-2.7-3.9h-0.8v-0.8H33.6z M34.2,31.3c3.1,0,6.2-1.7,6.2-5.2c0-3.7-3.9-5.2-6.9-5.2c-1,0-2.1,0.2-2.9,0.4v10H34.2z
		 M30.5,32.9v10.3c1.2,0.3,2.5,0.5,3.7,0.5c4.6,0,7.3-1.9,7.3-5.4s-2.5-5.4-7.3-5.4H30.5z"/>
	<path class="st2" d="M62,19.6c2.7,0,3.3,1.5,3.3,3.1v2.9h-0.8c0-3.1-1.7-4.4-4.8-4.4h-3.5V45h-3.5V21.1h-8.7v-1.5H62z"/>
	<path class="st1" d="M67.3,45.4c-3.1,0-5-0.6-6-1.5c-1-1-1-2.1-1-4h0.8c0.4,2.5,2.1,4,5.4,4c2.9,0,4.2-1.2,4.2-2.7
		c0-1.5-1.2-2.5-3.5-3.5l-2.3-1c-2.9-1.2-4.6-2.7-4.6-5.2c0-3.3,2.7-5,6.4-5c2.9,0,4.8,0.6,5.8,1.5c1,1,1,2.1,1,4h-0.8
		c-0.4-2.5-2.1-4-5.2-4c-2.5,0-3.9,1.2-3.9,2.7c0,1.3,1.2,2.5,3.1,3.3l2.3,1c3.3,1.3,5,2.7,5,5.4C74,43.7,71.1,45.4,67.3,45.4z"/>
	<path class="st0" d="M69.6,50.6c1.4,0,2.2,1.1,2.2,2.5c0,1.4-0.8,2.5-2.2,2.5c-1.4,0-2.2-1.1-2.2-2.5
		C67.4,51.7,68.2,50.6,69.6,50.6z M69.6,51c-0.8,0-1.3,0.9-1.3,2.1c0,1.2,0.5,2.1,1.3,2.1c0.8,0,1.3-0.9,1.3-2.1
		C70.9,51.9,70.4,51,69.6,51z"/>
	<path class="st0" d="M73.8,50.4v0.3h1.4v0.4h-1.4v4.4h-0.9v-4.4h-0.7v-0.4h0.7v-0.3c0-1.4,0.9-1.7,1.8-1.7c0.4,0,0.7,0.1,0.9,0.2
		c0.2,0.1,0.3,0.3,0.4,0.5l-0.3,0.3c-0.2-0.3-0.5-0.5-1-0.5C74.1,49.1,73.8,49.4,73.8,50.4z"/>
	<path class="st0" d="M80.4,48.8c1.1,0,2.8,0.2,2.8,1.8c0,0.6-0.4,1.2-1.3,1.5c1.3,0.2,1.7,0.8,1.7,1.6c0,1.5-1.5,1.8-2.8,1.8h-2V50
		c0-0.6-0.1-1-0.7-1h-0.2v-0.2H80.4z M80.6,51.9c0.8,0,1.6-0.5,1.6-1.4c0-1-1-1.4-1.8-1.4c-0.3,0-0.6,0.1-0.8,0.1v2.7H80.6z
		 M79.6,52.3V55c0.3,0.1,0.7,0.1,1,0.1c1.2,0,1.9-0.5,1.9-1.4s-0.7-1.4-1.9-1.4H79.6z"/>
	<path class="st0" d="M88.3,55.5h-0.5l-0.4-0.4h-0.1c-0.3,0.3-0.7,0.5-1.3,0.5c-0.9,0-1.7-0.4-1.7-1.8v-1.8c0-0.6-0.1-1-0.7-1h-0.1
		v-0.2h0.8c0.7,0,0.9,0.2,0.9,1.2v1.8c0,1,0.6,1.4,1.1,1.4c0.4,0,0.8-0.3,1-0.5v-3.9h0.9V55.5z"/>
	<path class="st0" d="M91.1,55.6c-0.8,0-1.3-0.2-1.6-0.4c-0.3-0.3-0.3-0.6-0.3-1.1h0.2c0.1,0.7,0.6,1.1,1.4,1.1
		c0.8,0,1.1-0.3,1.1-0.7c0-0.4-0.3-0.7-0.9-0.9l-0.6-0.3c-0.8-0.3-1.2-0.7-1.2-1.4c0-0.9,0.7-1.3,1.7-1.3c0.8,0,1.3,0.2,1.5,0.4
		c0.3,0.3,0.3,0.6,0.3,1.1h-0.2C92.4,51.4,92,51,91.2,51c-0.7,0-1,0.3-1,0.7c0,0.4,0.3,0.7,0.8,0.9l0.6,0.3c0.9,0.4,1.3,0.7,1.3,1.4
		C92.9,55.1,92.1,55.6,91.1,55.6z"/>
	<path class="st0" d="M94.8,55.5h-0.9v-3.6c0-0.6-0.1-1-0.7-1h-0.2v-0.2h0.9c0.7,0,0.9,0.2,0.9,1.2V55.5z M94.2,50.1
		c-0.3,0-0.6-0.3-0.6-0.7c0-0.3,0.2-0.5,0.5-0.5c0.3,0,0.6,0.3,0.6,0.7C94.7,49.9,94.5,50.1,94.2,50.1z"/>
	<path class="st0" d="M96.1,51.9c0-0.6-0.1-1-0.7-1h-0.2v-0.2h0.9c0.5,0,0.8,0.2,0.9,0.4h0.1c0.3-0.3,0.7-0.5,1.3-0.5
		c0.9,0,1.7,0.4,1.7,1.8v3.1h-0.9v-3.1c0-1-0.6-1.4-1.1-1.4c-0.4,0-0.8,0.3-1,0.5v3.9h-0.9V51.9z"/>
	<path class="st0" d="M105,53.3h-3c0,1.1,0.5,1.9,1.4,1.9c0.7,0,1.1-0.3,1.4-0.8l0.2,0.2c-0.5,0.8-1.1,1.1-1.8,1.1
		c-1.4,0-2.1-1.1-2.1-2.5c0-1.4,0.7-2.5,2-2.5c1.4,0,2,0.8,2,2.2L105,53.3z M104.1,52.8c0-1.1-0.4-1.8-1.1-1.8
		c-0.6,0-1.1,0.8-1.1,1.8H104.1z"/>
	<path class="st0" d="M107.4,55.6c-0.8,0-1.3-0.2-1.6-0.4c-0.3-0.3-0.3-0.6-0.3-1.1h0.2c0.1,0.7,0.6,1.1,1.4,1.1
		c0.8,0,1.1-0.3,1.1-0.7c0-0.4-0.3-0.7-0.9-0.9l-0.6-0.3c-0.8-0.3-1.2-0.7-1.2-1.4c0-0.9,0.7-1.3,1.7-1.3c0.8,0,1.3,0.2,1.5,0.4
		c0.3,0.3,0.3,0.6,0.3,1.1h-0.2c-0.1-0.7-0.6-1.1-1.4-1.1c-0.7,0-1,0.3-1,0.7c0,0.4,0.3,0.7,0.8,0.9l0.6,0.3
		c0.9,0.4,1.3,0.7,1.3,1.4C109.2,55.1,108.4,55.6,107.4,55.6z"/>
	<path class="st0" d="M111.6,55.6c-0.8,0-1.3-0.2-1.6-0.4c-0.3-0.3-0.3-0.6-0.3-1.1h0.2c0.1,0.7,0.6,1.1,1.4,1.1
		c0.8,0,1.1-0.3,1.1-0.7c0-0.4-0.3-0.7-0.9-0.9l-0.6-0.3c-0.8-0.3-1.2-0.7-1.2-1.4c0-0.9,0.7-1.3,1.7-1.3c0.8,0,1.3,0.2,1.5,0.4
		c0.3,0.3,0.3,0.6,0.3,1.1H113c-0.1-0.7-0.6-1.1-1.4-1.1c-0.7,0-1,0.3-1,0.7c0,0.4,0.3,0.7,0.8,0.9l0.6,0.3c0.9,0.4,1.3,0.7,1.3,1.4
		C113.4,55.1,112.6,55.6,111.6,55.6z"/>
	<path class="st0" d="M116.1,53.8c0-0.8,0.5-1.4,1.1-1.7c-0.4-0.5-0.6-1-0.6-1.6c0-1.6,1.1-1.9,1.9-1.9c0.8,0,1.6,0.4,1.9,0.8
		c0.3,0.3,0.3,0.8,0.3,1.3h-0.2c-0.2-1.1-1-1.7-1.7-1.7c-0.6,0-1.2,0.5-1.2,1.5c0,1.3,1,2.1,2.4,3.5c0.3-0.6,0.4-1.2,0.5-1.8h0.3
		v0.3c0,0.7-0.1,1.2-0.4,1.9l0.8,0.7l-0.4,0.3l-0.7-0.6c-0.4,0.5-1,0.8-1.8,0.8C116.8,55.7,116.1,54.8,116.1,53.8z M117.7,52.6
		c-0.4,0.3-0.6,0.7-0.6,1.2c0,0.8,0.5,1.5,1.5,1.5c0.5,0,1-0.3,1.3-0.7C118.9,53.8,118.2,53.2,117.7,52.6z"/>
	<path class="st0" d="M129.2,48.8v0.4h-2.3v6.3H126v-6.3h-0.9c-0.8,0-1.3,0.4-1.3,1.2h-0.2v-0.8c0-0.4,0.2-0.8,0.9-0.8H129.2z"/>
	<path class="st0" d="M132.7,53.3h-3c0,1.1,0.5,1.9,1.4,1.9c0.7,0,1.1-0.3,1.4-0.8l0.2,0.2c-0.5,0.8-1.1,1.1-1.8,1.1
		c-1.4,0-2.1-1.1-2.1-2.5c0-1.4,0.7-2.5,2-2.5c1.4,0,2,0.8,2,2.2L132.7,53.3z M131.8,52.8c0-1.1-0.4-1.8-1.1-1.8
		c-0.6,0-1.1,0.8-1.1,1.8H131.8z"/>
	<path class="st0" d="M136.9,51c0.3,0.3,0.3,0.6,0.3,1.3h-0.2c-0.1-0.9-0.6-1.3-1.3-1.3c-1,0-1.5,0.9-1.5,2.1c0,1.2,0.5,2.1,1.5,2.1
		c0.7,0,1.1-0.3,1.5-0.8l0.2,0.2c-0.5,0.8-1.1,1.1-1.9,1.1c-1.5,0-2.2-1.1-2.2-2.5c0-1.4,0.7-2.5,2.2-2.5
		C136.1,50.6,136.6,50.7,136.9,51z"/>
	<path class="st0" d="M139,51.1c0.3-0.3,0.7-0.5,1.3-0.5c0.9,0,1.7,0.4,1.7,1.8v3.1h-0.9v-3.1c0-1-0.6-1.4-1.1-1.4
		c-0.4,0-0.8,0.3-1,0.5v3.9H138V50c0-0.6-0.1-1-0.7-1h-0.2v-0.2h0.9c0.7,0,0.9,0.2,0.9,1.2V51.1z"/>
	<path class="st0" d="M143.3,51.9c0-0.6-0.1-1-0.7-1h-0.2v-0.2h0.9c0.5,0,0.8,0.2,0.9,0.4h0.1c0.3-0.3,0.7-0.5,1.3-0.5
		c0.9,0,1.7,0.4,1.7,1.8v3.1h-0.9v-3.1c0-1-0.6-1.4-1.1-1.4c-0.4,0-0.8,0.3-1,0.5v3.9h-0.9V51.9z"/>
	<path class="st0" d="M150.3,50.6c1.4,0,2.2,1.1,2.2,2.5c0,1.4-0.8,2.5-2.2,2.5c-1.4,0-2.2-1.1-2.2-2.5
		C148,51.7,148.8,50.6,150.3,50.6z M150.3,51c-0.8,0-1.3,0.9-1.3,2.1c0,1.2,0.5,2.1,1.3,2.1c0.8,0,1.3-0.9,1.3-2.1
		C151.5,51.9,151,51,150.3,51z"/>
	<path class="st0" d="M154.3,55.5h-0.9V50c0-0.6-0.1-1-0.7-1h-0.2v-0.2h0.9c0.7,0,0.9,0.2,0.9,1.2V55.5z"/>
	<path class="st0" d="M157.4,50.6c1.4,0,2.2,1.1,2.2,2.5c0,1.4-0.8,2.5-2.2,2.5c-1.4,0-2.2-1.1-2.2-2.5
		C155.2,51.7,156,50.6,157.4,50.6z M157.4,51c-0.8,0-1.3,0.9-1.3,2.1c0,1.2,0.5,2.1,1.3,2.1c0.8,0,1.3-0.9,1.3-2.1
		C158.7,51.9,158.2,51,157.4,51z"/>
	<path class="st0" d="M162.1,50.6h1.9v0.3l-0.7,0.1V51c0.4,0.2,0.7,0.6,0.7,1.1c0,1.2-0.9,1.5-1.9,1.5c-0.7,0-1.1,0.1-1.1,0.4
		c0,0.3,0.4,0.4,1.1,0.4c1.2,0,2.2,0.5,2.2,1.6c0,1.2-1,1.6-2.2,1.6c-1.3,0-2.2-0.4-2.2-1.6c0-0.7,0.5-1.1,1.1-1.3
		c-0.2-0.1-0.4-0.3-0.4-0.6c0-0.3,0.2-0.5,0.4-0.6c-0.4-0.2-0.8-0.7-0.8-1.3C160.2,51,161.1,50.6,162.1,50.6z M161.7,54.7
		c-0.5,0.2-0.9,0.6-0.9,1.2c0,0.8,0.6,1.2,1.3,1.2s1.3-0.4,1.3-1.2c0-0.7-0.4-1.1-1.2-1.2L161.7,54.7z M162.1,51c-0.6,0-1,0.3-1,1.2
		c0,0.9,0.5,1.2,1,1.2c0.6,0,1-0.3,1-1.2C163.2,51.3,162.7,51,162.1,51z"/>
	<path class="st0" d="M166.7,55.6l-1.6-4c-0.2-0.5-0.6-0.8-1.1-0.8v-0.2h0.9c0.6,0,1,0.3,1.2,0.8l1.1,2.8l1.3-3.5h0.5l-2,5.5
		c-0.4,1.1-0.9,1.4-1.6,1.4h-0.3v-0.3c0.6,0,1.1-0.2,1.4-1.1L166.7,55.6z"/>
	<path class="st2" d="M34.4,55.5c-0.1,0-0.3,0.1-0.4,0.1c-0.5,0-1.3-0.2-1.7-1.3L32,53.6h-2.9l-0.8,1.9h-0.5l2.9-6.7h0.3l2.2,5.5
		c0.3,0.8,0.6,1,1.1,1.1V55.5z M29.3,53.2h2.5l-1.2-3L29.3,53.2z"/>
	<path class="st2" d="M37.8,51c0.3,0.3,0.3,0.6,0.3,1.3h-0.2c-0.1-0.9-0.6-1.3-1.3-1.3c-1,0-1.5,0.9-1.5,2.1c0,1.2,0.5,2.1,1.5,2.1
		c0.7,0,1.1-0.3,1.5-0.8l0.2,0.2c-0.5,0.8-1.1,1.1-1.9,1.1c-1.5,0-2.2-1.1-2.2-2.5c0-1.4,0.7-2.5,2.2-2.5C37,50.6,37.5,50.7,37.8,51
		z"/>
	<path class="st2" d="M41.9,55.5L41.5,55h-0.1c-0.2,0.3-0.7,0.6-1.4,0.6c-0.6,0-1.5-0.3-1.5-1.4c0-1.1,1.2-1.4,2.6-1.4h0.3
		c0-1.4-0.5-1.7-1.1-1.7c-0.6,0-1,0.2-1.1,0.9h-0.5c0-0.4,0-0.7,0.3-0.9c0.3-0.3,0.9-0.4,1.5-0.4c0.9,0,1.8,0.3,1.8,2.1v2.8H41.9z
		 M41.5,53.2h-0.3c-1,0-1.6,0.4-1.6,1c0,0.7,0.5,1,1,1c0.5,0,0.8-0.3,1-0.6V53.2z"/>
	<path class="st2" d="M47.4,55.5h-0.5L46.5,55h-0.1c-0.2,0.3-0.6,0.6-1.4,0.6c-1.2,0-1.8-1.1-1.8-2.5c0-1.4,0.6-2.5,1.9-2.5
		c0.6,0,1,0.2,1.3,0.3V50c0-0.6-0.1-1-0.7-1h-0.2v-0.2h0.9c0.7,0,0.9,0.2,0.9,1.2V55.5z M46.5,51.3c-0.3-0.2-0.7-0.3-1-0.3
		c-0.9,0-1.3,0.9-1.3,2.1c0,1.2,0.4,2.1,1.2,2.1c0.6,0,0.9-0.3,1.1-0.6V51.3z"/>
	<path class="st2" d="M52.3,53.3h-3c0,1.1,0.5,1.9,1.4,1.9c0.7,0,1.1-0.3,1.4-0.8l0.2,0.2c-0.5,0.8-1.1,1.1-1.8,1.1
		c-1.4,0-2.1-1.1-2.1-2.5c0-1.4,0.7-2.5,2-2.5c1.4,0,2,0.8,2,2.2L52.3,53.3z M51.4,52.8c0-1.1-0.4-1.8-1.1-1.8
		c-0.6,0-1.1,0.8-1.1,1.8H51.4z"/>
	<path class="st2" d="M54.3,51.1c0.3-0.3,0.7-0.5,1.3-0.5c0.5,0,1,0.2,1.2,0.7c0.4-0.5,1-0.7,1.5-0.7c0.8,0,1.4,0.4,1.4,1.8v3.1
		h-0.9v-3.1c0-1-0.3-1.4-0.8-1.4c-0.4,0-0.9,0.4-1.1,0.7c0.1,0.2,0.1,0.5,0.1,0.7v3.1h-0.9v-3.1c0-1-0.3-1.4-0.8-1.4
		c-0.4,0-0.8,0.3-1,0.5v3.9h-0.9v-3.6c0-0.6-0.1-1-0.7-1h-0.2v-0.2h0.9C53.8,50.7,54.1,50.9,54.3,51.1L54.3,51.1z"/>
	<path class="st2" d="M62.5,55.6l-1.6-4c-0.2-0.5-0.6-0.8-1.1-0.8v-0.2h0.9c0.6,0,1,0.3,1.2,0.8l1.1,2.8l1.3-3.5h0.5l-2,5.5
		c-0.4,1.1-0.9,1.4-1.6,1.4h-0.3v-0.3c0.6,0,1.1-0.2,1.4-1.1L62.5,55.6z"/>
	<rect class="st1" width="64.9" height="5.3"/>
	<rect y="59.7" class="st1" width="64.9" height="5.3"/>
</g>
</svg>
